<svg width="910" height="279" viewBox="0 0 910 279" fill="none" xmlns="http://www.w3.org/2000/svg">
<g clip-path="url(#clip0_43_17)">
<path d="M865.45 8.53328C865.45 9.59995 867.85 11.7333 870.784 13.1999L876.117 15.8666V63.9999V112L872.117 114.267C869.984 115.467 868.117 117.6 868.117 118.8C868.117 120.933 869.984 121.2 888.784 121.2C906.517 121.2 909.45 120.933 909.45 119.2C909.45 118 907.717 116 905.45 114.8L901.45 112.533V59.4666V6.53328H883.45C868.384 6.53328 865.45 6.79994 865.45 8.53328Z" fill="black"/>
<path d="M618.65 11.7334C609.717 20.6667 616.517 35.8667 629.45 35.8667C635.317 35.8667 642.784 28.4 642.784 22.6667C642.784 17.4667 639.584 11.0667 636.25 9.20003C634.784 8.53337 631.184 7.8667 628.117 7.8667C623.717 7.8667 621.717 8.6667 618.65 11.7334Z" fill="black"/>
<path d="M116.784 11.0666C66.3835 20.9333 26.5169 58.1333 13.3169 107.867C8.91686 124.133 8.91686 154 13.1835 171.2C16.2502 183.733 28.1169 209.467 34.1169 216.533C37.3169 220.4 37.3169 220.267 33.4502 211.467C24.6502 191.733 20.6502 163.867 24.6502 150C26.7835 143.067 28.5169 140.533 42.6502 126C65.4502 102.667 64.6502 104.667 65.1835 66.1333C65.4502 48.8 65.9835 34.5333 66.2502 34.5333C66.6502 34.5333 70.5169 36.4 75.0502 38.6666C87.7169 45.0666 95.5835 53.4666 104.784 70.4L112.784 85.2H136.917C185.317 85.2 189.05 87.6 217.05 136.8C226.784 153.867 235.317 170.267 235.984 173.2C236.65 176.4 236.65 180.667 235.984 184C234.384 190.8 225.717 205.867 220.517 210.8C215.45 215.733 205.85 219.867 199.584 219.867C194.784 219.867 194.517 219.733 196.384 217.467C197.45 216.267 200.65 211.333 203.317 206.667C206.117 202 209.984 196.533 211.984 194.667C216.384 190.533 221.85 180.4 220.784 178.533C220.384 177.733 213.984 177.2 206.65 177.2C194.25 177.2 193.45 177.333 193.45 179.867C193.45 182.8 199.45 193.067 202.517 195.2C203.984 196.4 203.584 198 199.717 204.667C191.45 218.533 193.85 217.867 156.917 218.267C121.45 218.667 118.784 218.133 112.917 210.133C109.184 204.933 109.05 193.867 112.784 188.933C118.384 181.467 121.717 180.533 144.517 180.133C155.984 179.867 165.45 179.067 165.45 178.4C165.45 177.733 155.584 177.2 142.917 177.2C121.85 177.2 120.25 177.333 115.984 180.267C106.917 186.4 103.184 198.533 107.317 208.267C109.184 212.8 117.717 221.2 120.517 221.2C121.45 221.2 118.25 223.067 113.45 225.333C103.317 230.133 94.7835 238.667 88.5169 250.267L84.1169 258.267L90.9169 261.067C106.65 267.867 116.784 269.6 140.117 269.6C158.517 269.6 163.85 269.2 172.65 266.8C220.117 253.733 254.384 219.333 266.917 172.4C271.184 156.533 271.85 130.933 268.384 114.533C262.65 86.6666 250.25 64.5333 229.85 45.0666C212.784 28.9333 192.784 18 170.65 12.5333C158.784 9.59998 128.65 8.79996 116.784 11.0666ZM149.85 38.8C161.984 45.3333 170.117 54.4 181.05 73.6C186.25 82.9333 190.384 90.5333 190.117 90.5333C189.85 90.5333 186.784 89.0666 183.45 87.2C179.984 85.4666 175.05 83.6 172.384 83.2C169.584 82.8 161.05 80.8 153.184 78.9333L138.784 75.6V55.0666C138.784 40.9333 139.184 34.5333 140.25 34.5333C141.05 34.5333 145.45 36.5333 149.85 38.8ZM139.45 227.333C143.85 227.867 147.984 228.533 148.517 228.8C149.05 229.2 147.85 231.333 145.717 233.733C143.584 236.133 138.384 244.267 133.984 251.733L126.117 265.467L119.45 264.8C111.184 263.867 90.7835 257.467 90.7835 255.733C90.7835 253.6 97.5835 243.467 102.65 238.133C109.85 230.4 121.45 224.933 128.117 225.867C129.984 226.133 135.05 226.8 139.45 227.333Z" fill="black"/>
<path d="M366.783 10.4C355.85 13.7334 347.05 21.2 343.183 30.1334C341.05 35.3334 340.917 47.8667 342.917 54.9334C344.65 61.0667 352.25 69.8667 358.65 73.0667C361.317 74.4 369.183 77.3334 376.25 79.7334C390.517 84.4 395.717 88.5334 396.917 96C399.45 110.933 381.85 120.8 366.383 113.067C357.05 108.4 351.183 101.733 347.983 92.2667C345.85 85.8667 344.65 83.8667 342.65 83.8667C340.25 83.8667 340.117 84.9334 340.117 100.533V117.067L347.183 119.2C384.783 130.4 414.25 118.533 417.05 91.0667C418.117 81.6 415.583 73.2 409.85 66.5334C404.25 60.1334 399.717 57.6 382.517 52C368.117 47.2 363.983 44.5334 361.45 38.6667C356.25 25.8667 370.517 13.0667 384.517 18C392.517 20.8 400.517 29.2 403.583 38C405.583 43.8667 406.517 45.2 409.05 45.2C412.117 45.2 412.117 44.9334 412.117 30.6667V16.1334L407.05 14.1334C396.25 9.73337 375.183 7.8667 366.783 10.4Z" fill="black"/>
<path d="M446.517 43.8667C440.65 45.6 435.05 50.2667 431.45 56.5333C426.517 64.9333 425.317 69.7333 425.317 83.4667C425.317 94.1333 425.717 96.9333 428.784 103.467C430.65 107.733 433.584 112.667 435.184 114.267C445.45 125.333 466.517 126.267 474.384 116C475.717 114.267 475.984 117.467 476.117 132V150.133L470.784 151.733C466.917 152.933 465.45 154 465.45 155.867C465.45 158.4 466.517 158.533 488.117 158.533C509.85 158.533 510.784 158.4 510.784 155.867C510.784 154.133 509.184 152.533 506.117 151.333L501.45 149.333V101.467V53.4667L505.45 51.8667C507.85 50.8 509.45 49.2 509.45 47.7333C509.45 45.3333 508.25 45.2 492.784 45.2H476.117V48.8C476.117 51.8667 475.85 52.1333 474.517 50.2667C469.317 43.6 456.784 40.8 446.517 43.8667ZM473.184 57.4667C475.984 60.2667 476.117 61.2 476.117 83.3333V106.4L472.65 109.067C465.05 115.067 456.384 110.8 453.45 99.7333C451.317 91.8667 452.25 65.7333 454.784 60.5333C458.517 52.9333 466.784 51.6 473.184 57.4667Z" fill="black"/>
<path d="M702.65 45.1999C699.984 46.5333 695.984 49.8666 693.717 52.5333L689.45 57.3333V51.2V45.1999H672.117C657.45 45.1999 654.784 45.4666 654.784 47.1999C654.784 48.3999 656.917 50.2666 659.45 51.4666L664.117 53.7333V82.7999V112L660.117 114.267C657.984 115.467 656.117 117.6 656.117 118.8C656.117 120.933 657.984 121.2 678.117 121.2C698.65 121.2 700.117 121.067 700.117 118.8C700.117 117.067 698.384 115.733 694.784 114.533L689.45 112.8V89.2C689.45 63.3333 689.317 63.7333 697.584 61.4666C705.184 59.4666 709.45 60.7999 711.584 65.9999C712.784 69.0666 714.384 70.5333 716.117 70.5333C718.65 70.5333 718.784 69.5999 718.784 56.5333V42.5333H713.184C709.984 42.6666 705.317 43.7333 702.65 45.1999Z" fill="black"/>
<path d="M772.117 43.9999C770.25 44.7999 765.984 48.1333 762.517 51.5999L756.117 57.7333V51.4666V45.1999H739.45C725.984 45.1999 722.784 45.5999 722.784 47.0666C722.784 48.1333 724.917 50.1333 727.45 51.7333L732.117 54.3999V83.0666V111.6L727.45 114.4C724.917 115.867 722.784 118 722.784 119.2C722.784 120.933 725.984 121.2 745.45 121.2C764.917 121.2 768.117 120.933 768.117 119.2C768.117 118 765.45 116 762.117 114.533L756.117 112V89.4666C756.117 64.3999 756.384 63.7333 765.584 61.1999C772.517 59.1999 777.85 61.1999 779.317 66.2666C780.25 69.4666 781.317 70.5333 783.584 70.5333C786.784 70.5333 786.784 70.3999 786.784 56.5333V42.5333L781.184 42.6666C777.984 42.6666 773.984 43.3333 772.117 43.9999Z" fill="black"/>
<path d="M813.984 44.6667C796.117 51.0667 786.784 73.0667 792.65 95.6C797.45 114.533 809.317 122.933 830.784 122.933C837.85 122.933 842.517 122.267 846.784 120.267C855.05 116.667 862.784 109.067 862.784 104.667C862.784 99.8667 859.584 100.133 853.317 105.733C844.25 114 832.117 115.067 824.25 108.4C819.45 104.4 817.45 98.6667 817.05 88.4L816.784 80.5333L839.984 81.0667L863.05 81.4667L862.517 72.1333C861.85 59.6 857.05 51.4667 846.917 46.2667C840.917 43.0667 838.25 42.5333 829.584 42.6667C823.984 42.6667 816.917 43.6 813.984 44.6667ZM835.05 54.5333C836.384 57.2 837.45 62.1333 837.45 66V72.8L828.117 73.7333C823.05 74.2667 818.117 74.2667 817.317 73.8667C815.984 72.9333 816.25 68.8 818.25 58.4C820.117 48.4 830.917 46 835.05 54.5333Z" fill="black"/>
<path d="M513.45 47.2C513.45 48.2667 515.184 50 517.317 51.2L521.317 53.2L521.717 81.6C522.117 106.267 522.384 110.533 524.517 113.6C532.65 126.133 554.65 126.933 566.517 115.067L570.784 110.8V116V121.2H587.45C603.184 121.2 604.117 121.067 604.117 118.533C604.117 116.933 602.517 115.067 600.117 113.867L596.117 111.733V78.5333V45.2H578.784C564.384 45.2 561.45 45.4667 561.45 47.2C561.45 48.2667 563.584 50 566.117 51.0667L570.784 53.0667V77.6C570.784 101.2 570.65 102.133 567.85 104.933C564.65 107.867 558.65 110.533 555.317 110.533C554.25 110.533 551.85 109.067 550.117 107.2L546.784 104V74.5333V45.2H530.117C516.384 45.2 513.45 45.6 513.45 47.2Z" fill="black"/>
<path d="M609.45 47.7333C609.45 49.2 611.05 50.7999 613.45 51.8666L617.45 53.4666V83.1999V112.933L613.45 114.533C611.05 115.6 609.45 117.2 609.45 118.667C609.45 121.067 610.784 121.2 630.117 121.2C649.45 121.2 650.784 121.067 650.784 118.667C650.784 117.2 649.184 115.6 646.784 114.533L642.784 112.933V79.0666V45.1999H626.117C610.65 45.1999 609.45 45.3333 609.45 47.7333Z" fill="black"/>
<path d="M137.85 132.533C133.45 134.4 129.45 140.4 129.45 145.2C129.45 149.067 133.05 155.467 135.984 157.2C137.45 157.867 141.05 158.533 144.117 158.533C153.85 158.533 160.25 148.667 156.65 139.333C155.984 137.733 155.317 138 152.784 140.933C150.117 144 149.45 144.267 146.25 142.8C143.717 141.733 142.784 140.267 142.784 137.467C142.784 135.467 143.45 133.067 144.384 132.133C146.65 129.867 143.45 130.133 137.85 132.533Z" fill="black"/>
<path d="M337.717 162.8C337.984 164.8 339.717 166.133 343.85 167.6L349.45 169.467V214.933V260.533L343.45 262.933C339.317 264.667 337.45 266.267 337.45 268C337.45 270.4 338.65 270.533 354.784 270.533C370.784 270.533 372.117 270.4 372.117 268C372.117 266.267 370.117 264.667 365.45 262.8L358.784 260V218.4C358.784 195.467 359.184 177.067 359.584 177.6C359.984 178 372.517 199.2 387.45 224.8L414.384 271.2L421.984 271.6L429.45 272V221.2V170.4L435.45 167.867C439.717 166 441.45 164.533 441.45 162.533C441.45 160 440.65 159.867 424.117 159.867C408.117 159.867 406.784 160 406.784 162.4C406.784 164.133 408.784 165.733 413.45 167.6L420.117 170.4V199.467V228.533L402.65 199.2C393.05 183.067 383.984 167.6 382.384 164.8L379.584 159.867H358.384C337.45 159.867 337.317 159.867 337.717 162.8Z" fill="black"/>
<path d="M472.517 191.867C452.517 196 441.584 212 443.184 234.667C444.25 251.2 450.517 262.133 462.117 268.267C469.717 272.267 488.517 273.067 497.05 269.867C506.25 266.267 513.45 259.333 513.45 253.733C513.45 248.267 512.25 248.133 507.984 252.667C502.25 258.8 495.184 261.6 486.65 260.933C474.517 260 470.384 254.8 468.65 237.867L467.717 228.933L491.45 229.867L515.184 230.933L514.517 221.733C513.45 207.467 507.05 197.6 495.984 193.467C490.65 191.333 478.65 190.533 472.517 191.867ZM483.05 198.667C486.784 200.667 489.45 207.867 489.45 215.867V222.533L480.784 222.667C475.984 222.8 471.317 222.933 470.517 223.067C469.317 223.2 468.917 221.2 469.184 216.533C469.584 207.6 471.717 201.6 475.184 199.2C478.65 196.8 479.45 196.8 483.05 198.667Z" fill="black"/>
<path d="M660.517 191.867C654.117 193.333 647.717 197.467 644.517 202.4C638.517 211.2 639.317 224.933 646.25 233.2C650.784 238.533 654.65 240.4 667.184 243.6C680.784 247.067 684.117 249.333 684.117 255.067C684.117 260.4 680.917 263.733 674.117 265.2C663.45 267.6 650.784 259.733 646.517 248.133C644.65 243.067 643.184 241.2 641.317 241.2C639.05 241.2 638.784 242.267 638.784 253.733V266.267L645.184 268.533C648.917 269.867 657.184 271.067 665.45 271.467C678.784 272 679.717 271.867 686.784 268.267C698.25 262.4 702.784 253.333 700.917 240.533C699.184 229.467 691.85 223.733 672.384 218.533C664.384 216.4 660.65 214.667 658.784 212.267C655.317 207.867 655.45 206.133 659.317 201.6C666.517 193.2 683.05 199.067 688.517 212C690.384 216.4 692.117 218.533 693.717 218.533C695.85 218.533 696.117 217.2 696.117 207.333C696.117 196.4 695.984 196.133 692.517 194.667C684.117 191.2 668.784 189.867 660.517 191.867Z" fill="black"/>
<path d="M516.117 195.867C516.117 197.6 517.717 199.2 520.65 200.4C525.583 202.4 525.983 203.333 542.517 257.2L546.383 269.867H554.783H563.317L566.917 257.867C568.917 251.2 572.117 240.533 574.117 234.133C576.117 227.6 577.983 222.533 578.25 222.933C578.517 223.2 581.717 233.867 585.317 246.667L591.717 269.867H600.25H608.783L619.45 236.267C629.717 203.733 630.25 202.667 634.383 200.667C637.183 199.333 638.783 197.6 638.783 195.867C638.783 193.333 637.983 193.2 626.117 193.2C614.383 193.2 613.45 193.333 613.45 195.867C613.45 197.467 615.05 199.333 617.583 200.533C620.783 202.267 621.45 203.2 620.65 205.6C620.117 207.2 617.317 216 614.383 225.2L609.05 241.867L605.983 231.2C604.25 225.333 601.717 216.533 600.25 211.467L597.583 202.533L601.583 200.533C603.85 199.333 605.45 197.333 605.45 195.867C605.45 193.333 604.517 193.2 584.783 193.2C564.917 193.2 564.117 193.333 564.117 195.867C564.117 197.467 565.45 199.2 567.583 200.133C569.45 201.067 571.717 203.6 572.65 205.733C574.117 209.333 573.717 211.6 569.583 225.467C566.917 234.133 564.383 241.2 563.983 241.2C563.183 241.2 551.717 202.4 552.383 201.867C552.65 201.733 554.117 200.8 555.85 200C557.45 199.2 558.783 197.2 558.783 195.867C558.783 193.333 557.717 193.2 537.45 193.2C517.05 193.2 516.117 193.333 516.117 195.867Z" fill="black"/>
</g>
<defs>
<clipPath id="clip0_43_17">
<rect width="909.45" height="279" fill="white"/>
</clipPath>
</defs>
</svg>
