<svg width="900" height="266" viewBox="0 0 900 266" fill="none" xmlns="http://www.w3.org/2000/svg">
<path d="M855.45 1.99995C855.45 3.06662 857.85 5.19995 860.784 6.66662L866.117 9.33329V57.4666V105.467L862.117 107.733C859.984 108.933 858.117 111.067 858.117 112.267C858.117 114.4 859.984 114.667 878.784 114.667C896.517 114.667 899.45 114.4 899.45 112.667C899.45 111.467 897.717 109.467 895.45 108.267L891.45 106V52.9333V-4.66704e-05H873.45C858.384 -4.66704e-05 855.45 0.26662 855.45 1.99995Z" fill="white"/>
<path d="M608.65 5.20004C599.717 14.1334 606.517 29.3334 619.45 29.3334C625.317 29.3334 632.784 21.8667 632.784 16.1334C632.784 10.9334 629.584 4.53337 626.25 2.66671C624.784 2.00004 621.184 1.33337 618.117 1.33337C613.717 1.33337 611.717 2.13337 608.65 5.20004Z" fill="white"/>
<path d="M106.784 4.5333C56.3835 14.4 16.5169 51.6 3.31686 101.333C-1.08314 117.6 -1.08314 147.467 3.18353 164.667C6.25019 177.2 18.1169 202.933 24.1169 210C27.3169 213.867 27.3169 213.733 23.4502 204.933C14.6502 185.2 10.6502 157.333 14.6502 143.467C16.7835 136.533 18.5169 134 32.6502 119.467C55.4502 96.1333 54.6502 98.1333 55.1835 59.6C55.4502 42.2666 55.9835 28 56.2502 28C56.6502 28 60.5169 29.8666 65.0502 32.1333C77.7169 38.5333 85.5835 46.9333 94.7835 63.8666L102.784 78.6666H126.917C175.317 78.6666 179.05 81.0666 207.05 130.267C216.784 147.333 225.317 163.733 225.984 166.667C226.65 169.867 226.65 174.133 225.984 177.467C224.384 184.267 215.717 199.333 210.517 204.267C205.45 209.2 195.85 213.333 189.584 213.333C184.784 213.333 184.517 213.2 186.384 210.933C187.45 209.733 190.65 204.8 193.317 200.133C196.117 195.467 199.984 190 201.984 188.133C206.384 184 211.85 173.867 210.784 172C210.384 171.2 203.984 170.667 196.65 170.667C184.25 170.667 183.45 170.8 183.45 173.333C183.45 176.267 189.45 186.533 192.517 188.667C193.984 189.867 193.584 191.467 189.717 198.133C181.45 212 183.85 211.333 146.917 211.733C111.45 212.133 108.784 211.6 102.917 203.6C99.1835 198.4 99.0502 187.333 102.784 182.4C108.384 174.933 111.717 174 134.517 173.6C145.984 173.333 155.45 172.533 155.45 171.867C155.45 171.2 145.584 170.667 132.917 170.667C111.85 170.667 110.25 170.8 105.984 173.733C96.9169 179.867 93.1835 192 97.3169 201.733C99.1835 206.267 107.717 214.667 110.517 214.667C111.45 214.667 108.25 216.533 103.45 218.8C93.3169 223.6 84.7835 232.133 78.5169 243.733L74.1169 251.733L80.9169 254.533C96.6502 261.333 106.784 263.067 130.117 263.067C148.517 263.067 153.85 262.667 162.65 260.267C210.117 247.2 244.384 212.8 256.917 165.867C261.184 150 261.85 124.4 258.384 108C252.65 80.1333 240.25 58 219.85 38.5333C202.784 22.4 182.784 11.4666 160.65 5.99997C148.784 3.06664 118.65 2.26664 106.784 4.5333ZM139.85 32.2666C151.984 38.8 160.117 47.8666 171.05 67.0666C176.25 76.4 180.384 84 180.117 84C179.85 84 176.784 82.5333 173.45 80.6666C169.984 78.9333 165.05 77.0666 162.384 76.6666C159.584 76.2666 151.05 74.2666 143.184 72.4L128.784 69.0666V48.5333C128.784 34.4 129.184 28 130.25 28C131.05 28 135.45 30 139.85 32.2666ZM129.45 220.8C133.85 221.333 137.984 222 138.517 222.267C139.05 222.667 137.85 224.8 135.717 227.2C133.584 229.6 128.384 237.733 123.984 245.2L116.117 258.933L109.45 258.267C101.184 257.333 80.7835 250.933 80.7835 249.2C80.7835 247.067 87.5835 236.933 92.6502 231.6C99.8502 223.867 111.45 218.4 118.117 219.333C119.984 219.6 125.05 220.267 129.45 220.8Z" fill="white"/>
<path d="M356.783 3.86671C345.85 7.20004 337.05 14.6667 333.183 23.6C331.05 28.8 330.917 41.3334 332.917 48.4C334.65 54.5334 342.25 63.3334 348.65 66.5334C351.317 67.8667 359.183 70.8 366.25 73.2C380.517 77.8667 385.717 82 386.917 89.4667C389.45 104.4 371.85 114.267 356.383 106.533C347.05 101.867 341.183 95.2 337.983 85.7334C335.85 79.3334 334.65 77.3334 332.65 77.3334C330.25 77.3334 330.117 78.4 330.117 94V110.533L337.183 112.667C374.783 123.867 404.25 112 407.05 84.5334C408.117 75.0667 405.583 66.6667 399.85 60C394.25 53.6 389.717 51.0667 372.517 45.4667C358.117 40.6667 353.983 38 351.45 32.1334C346.25 19.3334 360.517 6.53338 374.517 11.4667C382.517 14.2667 390.517 22.6667 393.583 31.4667C395.583 37.3334 396.517 38.6667 399.05 38.6667C402.117 38.6667 402.117 38.4 402.117 24.1334V9.60004L397.05 7.60004C386.25 3.20004 365.183 1.33338 356.783 3.86671Z" fill="white"/>
<path d="M436.517 37.3333C430.65 39.0667 425.05 43.7333 421.45 50C416.517 58.4 415.317 63.2 415.317 76.9333C415.317 87.6 415.717 90.4 418.784 96.9333C420.65 101.2 423.584 106.133 425.184 107.733C435.45 118.8 456.517 119.733 464.384 109.467C465.717 107.733 465.984 110.933 466.117 125.467V143.6L460.784 145.2C456.917 146.4 455.45 147.467 455.45 149.333C455.45 151.867 456.517 152 478.117 152C499.85 152 500.784 151.867 500.784 149.333C500.784 147.6 499.184 146 496.117 144.8L491.45 142.8V94.9333V46.9333L495.45 45.3333C497.85 44.2667 499.45 42.6667 499.45 41.2C499.45 38.8 498.25 38.6667 482.784 38.6667H466.117V42.2667C466.117 45.3333 465.85 45.6 464.517 43.7333C459.317 37.0667 446.784 34.2667 436.517 37.3333ZM463.184 50.9333C465.984 53.7333 466.117 54.6667 466.117 76.8V99.8667L462.65 102.533C455.05 108.533 446.384 104.267 443.45 93.2C441.317 85.3333 442.25 59.2 444.784 54C448.517 46.4 456.784 45.0667 463.184 50.9333Z" fill="white"/>
<path d="M692.65 38.6666C689.984 40 685.984 43.3333 683.717 46L679.45 50.8V44.6666V38.6666H662.117C647.45 38.6666 644.784 38.9333 644.784 40.6666C644.784 41.8666 646.917 43.7333 649.45 44.9333L654.117 47.2V76.2666V105.467L650.117 107.733C647.984 108.933 646.117 111.067 646.117 112.267C646.117 114.4 647.984 114.667 668.117 114.667C688.65 114.667 690.117 114.533 690.117 112.267C690.117 110.533 688.384 109.2 684.784 108L679.45 106.267V82.6666C679.45 56.8 679.317 57.2 687.584 54.9333C695.184 52.9333 699.45 54.2666 701.584 59.4666C702.784 62.5333 704.384 64 706.117 64C708.65 64 708.784 63.0666 708.784 50V36H703.184C699.984 36.1333 695.317 37.2 692.65 38.6666Z" fill="white"/>
<path d="M762.117 37.4666C760.25 38.2666 755.984 41.6 752.517 45.0666L746.117 51.2V44.9333V38.6666H729.45C715.984 38.6666 712.784 39.0666 712.784 40.5333C712.784 41.6 714.917 43.6 717.45 45.2L722.117 47.8666V76.5333V105.067L717.45 107.867C714.917 109.333 712.784 111.467 712.784 112.667C712.784 114.4 715.984 114.667 735.45 114.667C754.917 114.667 758.117 114.4 758.117 112.667C758.117 111.467 755.45 109.467 752.117 108L746.117 105.467V82.9333C746.117 57.8666 746.384 57.2 755.584 54.6666C762.517 52.6666 767.85 54.6666 769.317 59.7333C770.25 62.9333 771.317 64 773.584 64C776.784 64 776.784 63.8666 776.784 50V36L771.184 36.1333C767.984 36.1333 763.984 36.8 762.117 37.4666Z" fill="white"/>
<path d="M803.984 38.1334C786.117 44.5334 776.784 66.5334 782.65 89.0667C787.45 108 799.317 116.4 820.784 116.4C827.85 116.4 832.517 115.733 836.784 113.733C845.05 110.133 852.784 102.533 852.784 98.1334C852.784 93.3334 849.584 93.6 843.317 99.2C834.25 107.467 822.117 108.533 814.25 101.867C809.45 97.8667 807.45 92.1334 807.05 81.8667L806.784 74L829.984 74.5334L853.05 74.9334L852.517 65.6C851.85 53.0667 847.05 44.9334 836.917 39.7334C830.917 36.5334 828.25 36 819.584 36.1334C813.984 36.1334 806.917 37.0667 803.984 38.1334ZM825.05 48C826.384 50.6667 827.45 55.6 827.45 59.4667V66.2667L818.117 67.2C813.05 67.7334 808.117 67.7334 807.317 67.3334C805.984 66.4 806.25 62.2667 808.25 51.8667C810.117 41.8667 820.917 39.4667 825.05 48Z" fill="white"/>
<path d="M503.45 40.6667C503.45 41.7333 505.184 43.4667 507.317 44.6667L511.317 46.6667L511.717 75.0667C512.117 99.7333 512.384 104 514.517 107.067C522.65 119.6 544.65 120.4 556.517 108.533L560.784 104.267V109.467V114.667H577.45C593.184 114.667 594.117 114.533 594.117 112C594.117 110.4 592.517 108.533 590.117 107.333L586.117 105.2V72V38.6667H568.784C554.384 38.6667 551.45 38.9333 551.45 40.6667C551.45 41.7333 553.584 43.4667 556.117 44.5333L560.784 46.5333V71.0667C560.784 94.6667 560.65 95.6 557.85 98.4C554.65 101.333 548.65 104 545.317 104C544.25 104 541.85 102.533 540.117 100.667L536.784 97.4667V68V38.6667H520.117C506.384 38.6667 503.45 39.0667 503.45 40.6667Z" fill="white"/>
<path d="M599.45 41.2C599.45 42.6666 601.05 44.2666 603.45 45.3333L607.45 46.9333V76.6666V106.4L603.45 108C601.05 109.067 599.45 110.667 599.45 112.133C599.45 114.533 600.784 114.667 620.117 114.667C639.45 114.667 640.784 114.533 640.784 112.133C640.784 110.667 639.184 109.067 636.784 108L632.784 106.4V72.5333V38.6666H616.117C600.65 38.6666 599.45 38.8 599.45 41.2Z" fill="white"/>
<path d="M127.85 126C123.45 127.867 119.45 133.867 119.45 138.667C119.45 142.533 123.05 148.933 125.984 150.667C127.45 151.333 131.05 152 134.117 152C143.85 152 150.25 142.133 146.65 132.8C145.984 131.2 145.317 131.467 142.784 134.4C140.117 137.467 139.45 137.733 136.25 136.267C133.717 135.2 132.784 133.733 132.784 130.933C132.784 128.933 133.45 126.533 134.384 125.6C136.65 123.333 133.45 123.6 127.85 126Z" fill="white"/>
<path d="M327.717 156.267C327.984 158.267 329.717 159.6 333.85 161.067L339.45 162.933V208.4V254L333.45 256.4C329.317 258.133 327.45 259.733 327.45 261.467C327.45 263.867 328.65 264 344.784 264C360.784 264 362.117 263.867 362.117 261.467C362.117 259.733 360.117 258.133 355.45 256.267L348.784 253.467V211.867C348.784 188.933 349.184 170.533 349.584 171.067C349.984 171.467 362.517 192.667 377.45 218.267L404.384 264.667L411.984 265.067L419.45 265.467V214.667V163.867L425.45 161.333C429.717 159.467 431.45 158 431.45 156C431.45 153.467 430.65 153.333 414.117 153.333C398.117 153.333 396.784 153.467 396.784 155.867C396.784 157.6 398.784 159.2 403.45 161.067L410.117 163.867V192.933V222L392.65 192.667C383.05 176.533 373.984 161.067 372.384 158.267L369.584 153.333H348.384C327.45 153.333 327.317 153.333 327.717 156.267Z" fill="white"/>
<path d="M462.517 185.333C442.517 189.467 431.584 205.467 433.184 228.133C434.25 244.667 440.517 255.6 452.117 261.733C459.717 265.733 478.517 266.533 487.05 263.333C496.25 259.733 503.45 252.8 503.45 247.2C503.45 241.733 502.25 241.6 497.984 246.133C492.25 252.267 485.184 255.067 476.65 254.4C464.517 253.467 460.384 248.267 458.65 231.333L457.717 222.4L481.45 223.333L505.184 224.4L504.517 215.2C503.45 200.933 497.05 191.067 485.984 186.933C480.65 184.8 468.65 184 462.517 185.333ZM473.05 192.133C476.784 194.133 479.45 201.333 479.45 209.333V216L470.784 216.133C465.984 216.267 461.317 216.4 460.517 216.533C459.317 216.667 458.917 214.667 459.184 210C459.584 201.067 461.717 195.067 465.184 192.667C468.65 190.267 469.45 190.267 473.05 192.133Z" fill="white"/>
<path d="M650.517 185.333C644.117 186.8 637.717 190.933 634.517 195.867C628.517 204.667 629.317 218.4 636.25 226.667C640.784 232 644.65 233.867 657.184 237.067C670.784 240.533 674.117 242.8 674.117 248.533C674.117 253.867 670.917 257.2 664.117 258.667C653.45 261.067 640.784 253.2 636.517 241.6C634.65 236.533 633.184 234.667 631.317 234.667C629.05 234.667 628.784 235.733 628.784 247.2V259.733L635.184 262C638.917 263.333 647.184 264.533 655.45 264.933C668.784 265.467 669.717 265.333 676.784 261.733C688.25 255.867 692.784 246.8 690.917 234C689.184 222.933 681.85 217.2 662.384 212C654.384 209.867 650.65 208.133 648.784 205.733C645.317 201.333 645.45 199.6 649.317 195.067C656.517 186.667 673.05 192.533 678.517 205.467C680.384 209.867 682.117 212 683.717 212C685.85 212 686.117 210.667 686.117 200.8C686.117 189.867 685.984 189.6 682.517 188.133C674.117 184.667 658.784 183.333 650.517 185.333Z" fill="white"/>
<path d="M506.117 189.333C506.117 191.067 507.717 192.667 510.65 193.867C515.584 195.867 515.984 196.8 532.517 250.667L536.384 263.333H544.784H553.317L556.917 251.333C558.917 244.667 562.117 234 564.117 227.6C566.117 221.067 567.984 216 568.25 216.4C568.517 216.667 571.717 227.333 575.317 240.133L581.717 263.333H590.25H598.784L609.45 229.733C619.717 197.2 620.25 196.133 624.384 194.133C627.184 192.8 628.784 191.067 628.784 189.333C628.784 186.8 627.984 186.667 616.117 186.667C604.384 186.667 603.45 186.8 603.45 189.333C603.45 190.933 605.05 192.8 607.584 194C610.784 195.733 611.45 196.667 610.65 199.067C610.117 200.667 607.317 209.467 604.384 218.667L599.05 235.333L595.984 224.667C594.25 218.8 591.717 210 590.25 204.933L587.584 196L591.584 194C593.85 192.8 595.45 190.8 595.45 189.333C595.45 186.8 594.517 186.667 574.784 186.667C554.917 186.667 554.117 186.8 554.117 189.333C554.117 190.933 555.45 192.667 557.584 193.6C559.45 194.533 561.717 197.067 562.65 199.2C564.117 202.8 563.717 205.067 559.584 218.933C556.917 227.6 554.384 234.667 553.984 234.667C553.184 234.667 541.717 195.867 542.384 195.333C542.65 195.2 544.117 194.267 545.85 193.467C547.45 192.667 548.784 190.667 548.784 189.333C548.784 186.8 547.717 186.667 527.45 186.667C507.05 186.667 506.117 186.8 506.117 189.333Z" fill="white"/>
</svg>
