<svg width="910" height="279" viewBox="0 0 910 279" fill="none" xmlns="http://www.w3.org/2000/svg">
<g clip-path="url(#clip0_44_2)">
<path d="M864.45 7.99995C864.45 9.06662 866.85 11.2 869.784 12.6666L875.117 15.3333V63.4666V111.467L871.117 113.733C868.984 114.933 867.117 117.067 867.117 118.267C867.117 120.4 868.984 120.667 887.784 120.667C905.517 120.667 908.45 120.4 908.45 118.667C908.45 117.467 906.717 115.467 904.45 114.267L900.45 112V58.9333V5.99995H882.45C867.384 5.99995 864.45 6.26662 864.45 7.99995Z" fill="white"/>
<path d="M617.65 11.2C608.717 20.1334 615.517 35.3334 628.45 35.3334C634.317 35.3334 641.784 27.8667 641.784 22.1334C641.784 16.9334 638.584 10.5334 635.25 8.66671C633.784 8.00004 630.184 7.33337 627.117 7.33337C622.717 7.33337 620.717 8.13337 617.65 11.2Z" fill="white"/>
<path d="M115.784 10.5333C65.3835 20.4 25.5169 57.6 12.3169 107.333C7.91686 123.6 7.91686 153.467 12.1835 170.667C15.2502 183.2 27.1169 208.933 33.1169 216C36.3169 219.867 36.3169 219.733 32.4502 210.933C23.6502 191.2 19.6502 163.333 23.6502 149.467C25.7835 142.533 27.5169 140 41.6502 125.467C64.4502 102.133 63.6502 104.133 64.1835 65.6C64.4502 48.2666 64.9835 34 65.2502 34C65.6502 34 69.5169 35.8666 74.0502 38.1333C86.7169 44.5333 94.5835 52.9333 103.784 69.8666L111.784 84.6666H135.917C184.317 84.6666 188.05 87.0666 216.05 136.267C225.784 153.333 234.317 169.733 234.984 172.667C235.65 175.867 235.65 180.133 234.984 183.467C233.384 190.267 224.717 205.333 219.517 210.267C214.45 215.2 204.85 219.333 198.584 219.333C193.784 219.333 193.517 219.2 195.384 216.933C196.45 215.733 199.65 210.8 202.317 206.133C205.117 201.467 208.984 196 210.984 194.133C215.384 190 220.85 179.867 219.784 178C219.384 177.2 212.984 176.667 205.65 176.667C193.25 176.667 192.45 176.8 192.45 179.333C192.45 182.267 198.45 192.533 201.517 194.667C202.984 195.867 202.584 197.467 198.717 204.133C190.45 218 192.85 217.333 155.917 217.733C120.45 218.133 117.784 217.6 111.917 209.6C108.184 204.4 108.05 193.333 111.784 188.4C117.384 180.933 120.717 180 143.517 179.6C154.984 179.333 164.45 178.533 164.45 177.867C164.45 177.2 154.584 176.667 141.917 176.667C120.85 176.667 119.25 176.8 114.984 179.733C105.917 185.867 102.184 198 106.317 207.733C108.184 212.267 116.717 220.667 119.517 220.667C120.45 220.667 117.25 222.533 112.45 224.8C102.317 229.6 93.7835 238.133 87.5169 249.733L83.1169 257.733L89.9169 260.533C105.65 267.333 115.784 269.067 139.117 269.067C157.517 269.067 162.85 268.667 171.65 266.267C219.117 253.2 253.384 218.8 265.917 171.867C270.184 156 270.85 130.4 267.384 114C261.65 86.1333 249.25 64 228.85 44.5333C211.784 28.4 191.784 17.4666 169.65 12C157.784 9.06665 127.65 8.26663 115.784 10.5333ZM148.85 38.2666C160.984 44.8 169.117 53.8666 180.05 73.0666C185.25 82.4 189.384 90 189.117 90C188.85 90 185.784 88.5333 182.45 86.6666C178.984 84.9333 174.05 83.0666 171.384 82.6666C168.584 82.2666 160.05 80.2666 152.184 78.4L137.784 75.0666V54.5333C137.784 40.4 138.184 34 139.25 34C140.05 34 144.45 36 148.85 38.2666ZM138.45 226.8C142.85 227.333 146.984 228 147.517 228.267C148.05 228.667 146.85 230.8 144.717 233.2C142.584 235.6 137.384 243.733 132.984 251.2L125.117 264.933L118.45 264.267C110.184 263.333 89.7835 256.933 89.7835 255.2C89.7835 253.067 96.5835 242.933 101.65 237.6C108.85 229.867 120.45 224.4 127.117 225.333C128.984 225.6 134.05 226.267 138.45 226.8Z" fill="white"/>
<path d="M365.783 9.86671C354.85 13.2 346.05 20.6667 342.183 29.6C340.05 34.8 339.917 47.3334 341.917 54.4C343.65 60.5334 351.25 69.3334 357.65 72.5334C360.317 73.8667 368.183 76.8 375.25 79.2C389.517 83.8667 394.717 88 395.917 95.4667C398.45 110.4 380.85 120.267 365.383 112.533C356.05 107.867 350.183 101.2 346.983 91.7334C344.85 85.3334 343.65 83.3334 341.65 83.3334C339.25 83.3334 339.117 84.4 339.117 100V116.533L346.183 118.667C383.783 129.867 413.25 118 416.05 90.5334C417.117 81.0667 414.583 72.6667 408.85 66C403.25 59.6 398.717 57.0667 381.517 51.4667C367.117 46.6667 362.983 44 360.45 38.1334C355.25 25.3334 369.517 12.5334 383.517 17.4667C391.517 20.2667 399.517 28.6667 402.583 37.4667C404.583 43.3334 405.517 44.6667 408.05 44.6667C411.117 44.6667 411.117 44.4 411.117 30.1334V15.6L406.05 13.6C395.25 9.20004 374.183 7.33337 365.783 9.86671Z" fill="white"/>
<path d="M445.517 43.3333C439.65 45.0667 434.05 49.7333 430.45 56C425.517 64.4 424.317 69.2 424.317 82.9333C424.317 93.6 424.717 96.4 427.784 102.933C429.65 107.2 432.584 112.133 434.184 113.733C444.45 124.8 465.517 125.733 473.384 115.467C474.717 113.733 474.984 116.933 475.117 131.467V149.6L469.784 151.2C465.917 152.4 464.45 153.467 464.45 155.333C464.45 157.867 465.517 158 487.117 158C508.85 158 509.784 157.867 509.784 155.333C509.784 153.6 508.184 152 505.117 150.8L500.45 148.8V100.933V52.9333L504.45 51.3333C506.85 50.2667 508.45 48.6667 508.45 47.2C508.45 44.8 507.25 44.6667 491.784 44.6667H475.117V48.2667C475.117 51.3333 474.85 51.6 473.517 49.7333C468.317 43.0667 455.784 40.2667 445.517 43.3333ZM472.184 56.9333C474.984 59.7333 475.117 60.6667 475.117 82.8V105.867L471.65 108.533C464.05 114.533 455.384 110.267 452.45 99.2C450.317 91.3333 451.25 65.2 453.784 60C457.517 52.4 465.784 51.0667 472.184 56.9333Z" fill="white"/>
<path d="M701.65 44.6666C698.984 46 694.984 49.3333 692.717 52L688.45 56.8V50.6666V44.6666H671.117C656.45 44.6666 653.784 44.9333 653.784 46.6666C653.784 47.8666 655.917 49.7333 658.45 50.9333L663.117 53.2V82.2666V111.467L659.117 113.733C656.984 114.933 655.117 117.067 655.117 118.267C655.117 120.4 656.984 120.667 677.117 120.667C697.65 120.667 699.117 120.533 699.117 118.267C699.117 116.533 697.384 115.2 693.784 114L688.45 112.267V88.6666C688.45 62.8 688.317 63.2 696.584 60.9333C704.184 58.9333 708.45 60.2666 710.584 65.4666C711.784 68.5333 713.384 70 715.117 70C717.65 70 717.784 69.0666 717.784 56V42H712.184C708.984 42.1333 704.317 43.2 701.65 44.6666Z" fill="white"/>
<path d="M771.117 43.4666C769.25 44.2666 764.984 47.6 761.517 51.0666L755.117 57.2V50.9333V44.6666H738.45C724.984 44.6666 721.784 45.0666 721.784 46.5333C721.784 47.6 723.917 49.6 726.45 51.2L731.117 53.8666V82.5333V111.067L726.45 113.867C723.917 115.333 721.784 117.467 721.784 118.667C721.784 120.4 724.984 120.667 744.45 120.667C763.917 120.667 767.117 120.4 767.117 118.667C767.117 117.467 764.45 115.467 761.117 114L755.117 111.467V88.9333C755.117 63.8666 755.384 63.2 764.584 60.6666C771.517 58.6666 776.85 60.6666 778.317 65.7333C779.25 68.9333 780.317 70 782.584 70C785.784 70 785.784 69.8666 785.784 56V42L780.184 42.1333C776.984 42.1333 772.984 42.8 771.117 43.4666Z" fill="white"/>
<path d="M812.984 44.1334C795.117 50.5334 785.784 72.5334 791.65 95.0667C796.45 114 808.317 122.4 829.784 122.4C836.85 122.4 841.517 121.733 845.784 119.733C854.05 116.133 861.784 108.533 861.784 104.133C861.784 99.3334 858.584 99.6 852.317 105.2C843.25 113.467 831.117 114.533 823.25 107.867C818.45 103.867 816.45 98.1334 816.05 87.8667L815.784 80L838.984 80.5334L862.05 80.9334L861.517 71.6C860.85 59.0667 856.05 50.9334 845.917 45.7334C839.917 42.5334 837.25 42 828.584 42.1334C822.984 42.1334 815.917 43.0667 812.984 44.1334ZM834.05 54C835.384 56.6667 836.45 61.6 836.45 65.4667V72.2667L827.117 73.2C822.05 73.7334 817.117 73.7334 816.317 73.3334C814.984 72.4 815.25 68.2667 817.25 57.8667C819.117 47.8667 829.917 45.4667 834.05 54Z" fill="white"/>
<path d="M512.45 46.6667C512.45 47.7333 514.184 49.4667 516.317 50.6667L520.317 52.6667L520.717 81.0667C521.117 105.733 521.384 110 523.517 113.067C531.65 125.6 553.65 126.4 565.517 114.533L569.784 110.267V115.467V120.667H586.45C602.184 120.667 603.117 120.533 603.117 118C603.117 116.4 601.517 114.533 599.117 113.333L595.117 111.2V78V44.6667H577.784C563.384 44.6667 560.45 44.9333 560.45 46.6667C560.45 47.7333 562.584 49.4667 565.117 50.5333L569.784 52.5333V77.0667C569.784 100.667 569.65 101.6 566.85 104.4C563.65 107.333 557.65 110 554.317 110C553.25 110 550.85 108.533 549.117 106.667L545.784 103.467V74V44.6667H529.117C515.384 44.6667 512.45 45.0667 512.45 46.6667Z" fill="white"/>
<path d="M608.45 47.2C608.45 48.6666 610.05 50.2666 612.45 51.3333L616.45 52.9333V82.6666V112.4L612.45 114C610.05 115.067 608.45 116.667 608.45 118.133C608.45 120.533 609.784 120.667 629.117 120.667C648.45 120.667 649.784 120.533 649.784 118.133C649.784 116.667 648.184 115.067 645.784 114L641.784 112.4V78.5333V44.6666H625.117C609.65 44.6666 608.45 44.8 608.45 47.2Z" fill="white"/>
<path d="M136.85 132C132.45 133.867 128.45 139.867 128.45 144.667C128.45 148.533 132.05 154.933 134.984 156.667C136.45 157.333 140.05 158 143.117 158C152.85 158 159.25 148.133 155.65 138.8C154.984 137.2 154.317 137.467 151.784 140.4C149.117 143.467 148.45 143.733 145.25 142.267C142.717 141.2 141.784 139.733 141.784 136.933C141.784 134.933 142.45 132.533 143.384 131.6C145.65 129.333 142.45 129.6 136.85 132Z" fill="white"/>
<path d="M336.717 162.267C336.984 164.267 338.717 165.6 342.85 167.067L348.45 168.933V214.4V260L342.45 262.4C338.317 264.133 336.45 265.733 336.45 267.467C336.45 269.867 337.65 270 353.784 270C369.784 270 371.117 269.867 371.117 267.467C371.117 265.733 369.117 264.133 364.45 262.267L357.784 259.467V217.867C357.784 194.933 358.184 176.533 358.584 177.067C358.984 177.467 371.517 198.667 386.45 224.267L413.384 270.667L420.984 271.067L428.45 271.467V220.667V169.867L434.45 167.333C438.717 165.467 440.45 164 440.45 162C440.45 159.467 439.65 159.333 423.117 159.333C407.117 159.333 405.784 159.467 405.784 161.867C405.784 163.6 407.784 165.2 412.45 167.067L419.117 169.867V198.933V228L401.65 198.667C392.05 182.533 382.984 167.067 381.384 164.267L378.584 159.333H357.384C336.45 159.333 336.317 159.333 336.717 162.267Z" fill="white"/>
<path d="M471.517 191.333C451.517 195.467 440.584 211.467 442.184 234.133C443.25 250.667 449.517 261.6 461.117 267.733C468.717 271.733 487.517 272.533 496.05 269.333C505.25 265.733 512.45 258.8 512.45 253.2C512.45 247.733 511.25 247.6 506.984 252.133C501.25 258.267 494.184 261.067 485.65 260.4C473.517 259.467 469.384 254.267 467.65 237.333L466.717 228.4L490.45 229.333L514.184 230.4L513.517 221.2C512.45 206.933 506.05 197.067 494.984 192.933C489.65 190.8 477.65 190 471.517 191.333ZM482.05 198.133C485.784 200.133 488.45 207.333 488.45 215.333V222L479.784 222.133C474.984 222.267 470.317 222.4 469.517 222.533C468.317 222.667 467.917 220.667 468.184 216C468.584 207.067 470.717 201.067 474.184 198.667C477.65 196.267 478.45 196.267 482.05 198.133Z" fill="white"/>
<path d="M659.517 191.333C653.117 192.8 646.717 196.933 643.517 201.867C637.517 210.667 638.317 224.4 645.25 232.667C649.784 238 653.65 239.867 666.184 243.067C679.784 246.533 683.117 248.8 683.117 254.533C683.117 259.867 679.917 263.2 673.117 264.667C662.45 267.067 649.784 259.2 645.517 247.6C643.65 242.533 642.184 240.667 640.317 240.667C638.05 240.667 637.784 241.733 637.784 253.2V265.733L644.184 268C647.917 269.333 656.184 270.533 664.45 270.933C677.784 271.467 678.717 271.333 685.784 267.733C697.25 261.867 701.784 252.8 699.917 240C698.184 228.933 690.85 223.2 671.384 218C663.384 215.867 659.65 214.133 657.784 211.733C654.317 207.333 654.45 205.6 658.317 201.067C665.517 192.667 682.05 198.533 687.517 211.467C689.384 215.867 691.117 218 692.717 218C694.85 218 695.117 216.667 695.117 206.8C695.117 195.867 694.984 195.6 691.517 194.133C683.117 190.667 667.784 189.333 659.517 191.333Z" fill="white"/>
<path d="M515.117 195.333C515.117 197.067 516.717 198.667 519.65 199.867C524.583 201.867 524.983 202.8 541.517 256.667L545.383 269.333H553.783H562.317L565.917 257.333C567.917 250.667 571.117 240 573.117 233.6C575.117 227.067 576.983 222 577.25 222.4C577.517 222.667 580.717 233.333 584.317 246.133L590.717 269.333H599.25H607.783L618.45 235.733C628.717 203.2 629.25 202.133 633.383 200.133C636.183 198.8 637.783 197.067 637.783 195.333C637.783 192.8 636.983 192.667 625.117 192.667C613.383 192.667 612.45 192.8 612.45 195.333C612.45 196.933 614.05 198.8 616.583 200C619.783 201.733 620.45 202.667 619.65 205.067C619.117 206.667 616.317 215.467 613.383 224.667L608.05 241.333L604.983 230.667C603.25 224.8 600.717 216 599.25 210.933L596.583 202L600.583 200C602.85 198.8 604.45 196.8 604.45 195.333C604.45 192.8 603.517 192.667 583.783 192.667C563.917 192.667 563.117 192.8 563.117 195.333C563.117 196.933 564.45 198.667 566.583 199.6C568.45 200.533 570.717 203.067 571.65 205.2C573.117 208.8 572.717 211.067 568.583 224.933C565.917 233.6 563.383 240.667 562.983 240.667C562.183 240.667 550.717 201.867 551.383 201.333C551.65 201.2 553.117 200.267 554.85 199.467C556.45 198.667 557.783 196.667 557.783 195.333C557.783 192.8 556.717 192.667 536.45 192.667C516.05 192.667 515.117 192.8 515.117 195.333Z" fill="white"/>
<g clip-path="url(#clip1_44_2)">
<path d="M138.438 278.253C215.103 278.253 277.253 216.103 277.253 139.438C277.253 62.7721 215.103 0.622437 138.438 0.622437C61.7723 0.622437 -0.377441 62.7721 -0.377441 139.438C-0.377441 216.103 61.7723 278.253 138.438 278.253Z" fill="white" stroke="white" stroke-width="0.803213" stroke-miterlimit="10"/>
<path d="M154.872 136.45C154.872 136.574 154.872 136.823 154.872 136.948C154.872 140.434 152.008 143.297 148.522 143.297C145.036 143.297 142.173 140.434 142.173 136.948C142.173 134.209 143.791 131.968 146.157 130.972C145.41 130.847 144.538 130.723 143.791 130.723C136.072 130.723 129.972 136.948 129.972 144.542C129.972 152.136 136.197 158.361 143.791 158.361C151.386 158.361 157.61 152.136 157.61 144.542C157.61 141.554 156.614 138.691 154.872 136.45Z" fill="#010102"/>
<path d="M268.787 135.08C266.546 64.6144 208.032 8.34133 136.695 9.58631C68.5944 10.8313 12.5703 65.1124 9.33335 133.088C8.95986 141.181 9.33335 149.149 10.3293 156.867L10.4538 156.743C13.5663 180.149 22.9036 201.562 36.7229 219.241C27.5101 201.438 22.4056 181.269 22.4056 159.855C22.4056 150.145 26.2651 140.932 33.1125 134.084L53.6546 113.542C60.751 106.446 64.735 96.8594 64.735 86.8996V33.6144L75.9398 39.2168C85.8996 44.1968 94.1165 52.0401 99.5944 61.8755L112.791 85.6546H159.353C175.787 85.6546 190.851 94.2449 199.442 108.064L231.562 164.213C236.418 172.803 236.418 183.137 231.562 191.727L225.711 201.936C219.486 212.767 208.032 219.49 195.582 219.49H190.602C193.59 217.996 196.205 215.631 197.948 212.643L207.783 195.337C210.024 194.839 212.016 193.345 213.261 191.104L219.237 180.647C220.233 179.028 218.988 176.912 217.12 176.912H193.964C192.096 176.912 190.851 178.904 191.847 180.647L197.823 191.104C199.193 193.345 201.185 194.839 203.426 195.337L194.586 210.775C192.221 215.008 187.614 217.622 182.759 217.622H127.233C116.775 217.622 108.309 209.157 108.309 198.699C108.309 188.241 116.775 179.775 127.233 179.775H162.964C163.96 179.775 164.831 178.904 164.831 177.908C164.831 176.912 163.96 176.04 162.964 176.04H127.233C114.783 176.04 104.574 186.249 104.574 198.699C104.574 209.406 112.169 218.494 122.253 220.735C109.305 223.723 97.8514 231.94 91.004 243.767L83.4097 256.839C100.466 264.932 119.514 269.414 139.558 269.289C213.012 269.04 271.277 208.41 268.787 135.08ZM161.843 81.9196H161.968L137.691 75.8192V33.6144L149.145 39.3413C158.855 44.1968 167.072 51.7911 172.426 61.3775L190.229 92.6265C182.261 86.2771 172.301 82.4176 161.843 81.9196ZM138.064 241.9L124.743 264.807C112.293 263.438 100.217 260.201 88.7631 255.221L94.241 245.759C99.4699 236.795 107.438 230.072 116.775 226.462C120.386 225.092 124.369 224.594 128.229 224.968C128.478 224.968 128.602 224.968 128.851 225.092L149.892 228.08C145.285 231.815 141.177 236.546 138.064 241.9Z" fill="#010102"/>
</g>
</g>
<defs>
<clipPath id="clip0_44_2">
<rect width="909.45" height="279" fill="white"/>
</clipPath>
<clipPath id="clip1_44_2">
<rect width="279" height="279" fill="white" transform="translate(-1)"/>
</clipPath>
</defs>
</svg>
